<?xml version="1.0" encoding="UTF-8" standalone="no"?>
<!-- Created with Inkscape (http://www.inkscape.org/) -->

<svg
   version="1.1"
   id="svg824"
   xml:space="preserve"
   width="609.51074"
   height="638.1889"
   viewBox="0 0 609.51074 638.18889"
   sodipodi:docname="glove.svg"
   inkscape:version="1.1 (c68e22c387, 2021-05-23)"
   xmlns:inkscape="http://www.inkscape.org/namespaces/inkscape"
   xmlns:sodipodi="http://sodipodi.sourceforge.net/DTD/sodipodi-0.dtd"
   xmlns="http://www.w3.org/2000/svg"
   xmlns:svg="http://www.w3.org/2000/svg"><defs
     id="defs828"><clipPath
       clipPathUnits="userSpaceOnUse"
       id="clipPath838"><path
         d="M 45,479.89 0,376.654 V 184.792 L 19,69.889 191,23.89 334.336,0 h 0.778 L 465,125.889 497,167.89 v 39.999 l -36,60 -18,154 -80,78.001 -58,11.999 -162,10 z"
         id="path836" /></clipPath><clipPath
       clipPathUnits="userSpaceOnUse"
       id="clipPath852"><path
         d="M 0,841.89 H 595.28 V 0 H 0 Z"
         id="path850" /></clipPath><clipPath
       clipPathUnits="userSpaceOnUse"
       id="clipPath860"><path
         d="M 46.0015,872.89 H 703.744 V -109.109 H 46.0015 Z"
         id="path858" /></clipPath><clipPath
       clipPathUnits="userSpaceOnUse"
       id="clipPath864"><path
         d="M 205.795,851.877 98,804.89 l -42,-98 10,-162 12,-58.001 78,-79.999 154,-18 60,-36 h 40 l 42,31.999 126,130.001 -24,144 -46,172 -126.924,20.987 z"
         id="path862" /></clipPath></defs><sodipodi:namedview
     id="namedview826"
     pagecolor="#ffffff"
     bordercolor="#666666"
     borderopacity="1.0"
     inkscape:pageshadow="2"
     inkscape:pageopacity="0.0"
     inkscape:pagecheckerboard="0"
     showgrid="false"
     fit-margin-top="0"
     fit-margin-left="0"
     fit-margin-right="0"
     fit-margin-bottom="0"
     inkscape:zoom="0.98646723"
     inkscape:cx="175.88014"
     inkscape:cy="302.59495"
     inkscape:window-width="1920"
     inkscape:window-height="1001"
     inkscape:window-x="-9"
     inkscape:window-y="-9"
     inkscape:window-maximized="1"
     inkscape:current-layer="g830" /><g
     id="g830"
     inkscape:groupmode="layer"
     inkscape:label="glove"
     transform="matrix(1.3333333,0,0,-1.3333333,-122.70585,712.26261)"><path
       style="fill:none;stroke:#000000;stroke-width:0.283465;stroke-miterlimit:4;stroke-dasharray:none;stroke-opacity:1"
       d="m 409.54046,81.747845 c 14.49284,14.327939 26.34955,27.541515 26.3482,29.363505 -0.004,5.17633 -27.69634,32.14232 -33.00834,32.14232 -5.46898,0 -54.54587,-48.657678 -54.54587,-54.079954 0,-4.549614 27.27714,-33.476683 31.56727,-33.476683 1.80845,0 15.14587,11.722873 29.63874,26.050812 z m -75.17379,21.566315 c 6.36913,9.72049 18.23884,92.96648 18.23884,127.91454 0,0 1.15087,15.02259 -2.55363,21.74202 -1.71706,3.1145 -6.46846,6.9722 -6.46846,6.9722 -12.09104,7.63276 -29.65999,15.27116 -40.93841,17.79871 -11.03455,2.4729 -36.81834,-0.95035 -81.37447,-10.80387 -35.37147,-7.82233 -79.12406,-25.28128 -82.62805,-32.97172 -2.81978,-6.18869 5.47331,-75.23505 11.30358,-94.11127 4.82702,-15.62807 3.59202,-15.0177 42.49485,-21.00219 12.33267,-1.89719 30.59143,-5.47065 40.57503,-7.94107 30.74697,-7.60829 60.00938,-12.146477 79.49919,-12.329193 17.18252,-0.161019 18.88746,0.208214 21.85153,4.731843 z m 140.45961,41.50109 c 11.47278,11.42973 20.8596,22.21673 20.8596,23.97109 0,4.64755 -27.99953,32.12658 -32.7351,32.12658 -2.21102,0 -13.14992,-9.01201 -24.30865,-20.0267 -17.53527,-17.30888 -20.08287,-20.71417 -18.77236,-25.09245 1.91837,-6.40917 26.55888,-31.75985 30.87012,-31.75985 1.77473,0 12.6136,9.35161 24.08639,20.78133 z m 52.18192,48.69087 c 8.02533,6.49711 16.26819,14.42526 18.31747,17.6181 10.22647,15.93331 -1.99132,36.77031 -21.56029,36.77031 -10.56839,0 -43.0282,-26.10877 -43.0282,-34.60937 0,-7.26478 20.60874,-31.59199 26.76308,-31.59199 2.78044,0 11.25581,5.13223 19.50794,11.81295 z m -374.35697,60.55377 c 8.06646,3.26804 15.52915,7.48374 16.58376,9.36824 1.3334,2.38265 -0.61979,9.80813 -6.41226,24.37762 -6.57339,16.53373 -9.29779,21.09726 -12.92095,21.64349 -5.6994,0.85921 -34.30621,-9.86503 -35.64899,-13.36426 -1.07167,-2.79269 12.86953,-40.90452 16.61247,-45.4145 3.1115,-3.74911 4.82345,-3.48277 21.78597,3.38941 z m -21.50554,58.89014 c 6.80928,1.90274 12.88787,4.78177 13.50801,6.39781 1.42023,3.70104 -7.25821,35.47813 -10.66327,39.0448 -2.01397,2.10957 -5.55649,1.78952 -17.26995,-1.56022 -8.10493,-2.31781 -15.40202,-5.29147 -16.21579,-6.60814 -1.533222,-2.48082 5.24872,-31.90737 8.94583,-38.81548 1.21403,-2.26844 3.62271,-3.50139 5.70757,-2.92153 1.98392,0.55176 9.17834,2.56001 15.9876,4.46276 z m -3.66871,53.8269 c 4.48305,1.72031 5.03699,6.13979 2.68103,21.39052 -2.71957,17.60452 -4.4032,21.06385 -12.21857,25.10534 -7.83053,4.04932 -16.7476,1.71293 -22.410443,-5.87185 -3.969093,-5.31614 -4.125306,-7.01954 -1.997979,-21.78599 3.062902,-21.26064 4.821766,-23.17647 19.584332,-21.33201 6.41205,0.80114 12.87477,1.92343 14.36163,2.49399 z m 232.308,-69.23138 c 1.6538,2.64272 5.22177,16.54011 7.92883,30.88311 5.92261,31.38018 5.37848,32.63219 -15.88471,36.55009 -20.71749,3.81734 -26.72889,3.34192 -29.07652,-2.2996 -2.45684,-5.90395 -10.73444,-47.47669 -10.68941,-53.68555 0.0551,-7.59148 2.86326,-9.68792 17.16463,-12.81434 20.79718,-4.54647 27.03147,-4.26772 30.55718,1.36629 z m -126.92181,1.54255 5.4916,1.50324 -0.44092,23.3026 c -0.51691,27.31714 -1.43912,32.05404 -6.79889,34.9225 -5.0739,2.71548 -37.84588,-0.79973 -42.35661,-4.54329 -2.6787,-2.22312 -2.96683,-6.58648 -1.73185,-26.22698 0.94324,-15.00078 2.6415,-25.36658 4.67456,-28.53242 3.04228,-4.73739 3.96013,-4.90037 19.43181,-3.45056 8.93129,0.83693 18.70992,2.19814 21.7303,3.02491 z m 60.31329,5.72889 c 3.43277,3.10662 3.90532,7.18932 3.90532,33.74134 0,20.64701 -0.81103,31.0181 -2.56263,32.7697 -3.49046,3.49046 -42.63695,3.49046 -46.1274,0 -1.75327,-1.75327 -2.56263,-12.16933 -2.56263,-32.9796 0,-29.01114 0.21936,-30.57059 4.74623,-33.74134 6.85353,-4.80039 37.23017,-4.65073 42.60111,0.20992 z m -61.96356,71.34573 c 2.74031,3.18553 3.32201,7.11573 2.58561,17.46943 -2.12094,29.82118 -3.19921,35.7829 -6.80988,37.65205 -1.97041,1.02002 -11.57176,1.37008 -21.33635,0.77791 -23.50995,-1.42576 -24.01701,-2.21096 -21.6591,-33.53965 1.22056,-16.21718 2.70334,-24.10554 4.82236,-25.65501 1.76006,-1.28699 10.66404,-1.9353 20.96074,-1.5262 14.45077,0.57415 18.5823,1.5034 21.43662,4.82147 z m 143.5205,0.39735 c 3.78522,6.04931 10.60117,44.28427 8.75293,49.10074 -1.62776,4.24184 -3.27718,4.78748 -25.23792,8.34894 -15.13043,2.45376 -17.03537,2.37224 -19.37635,-0.82924 -4.22408,-5.77676 -10.93019,-46.26647 -8.35034,-50.41706 1.3504,-2.17258 8.70084,-4.90431 19.08066,-7.09117 22.11264,-4.65879 21.65013,-4.67512 25.13102,0.88779 z m -80.31799,14.94869 c 2.77623,3.48314 4.83088,52.49208 2.46207,58.72702 -1.72352,4.5365 -3.00689,4.80493 -22.97215,4.80493 -14.38799,0 -21.85952,-0.85894 -23.37709,-2.68749 -3.54237,-4.26831 -4.07139,-55.92065 -0.61538,-60.08489 3.64629,-4.3935 41.09666,-5.03269 44.50255,-0.75957 z m -70.1266,54.24639 c 4.87868,3.41717 5.001,4.22024 3.90719,25.6521 -1.28792,25.23465 -3.9622,31.28427 -16.0649,36.3411 -10.64586,4.44812 -22.52394,0.89998 -28.49471,-8.51176 -3.85456,-6.07596 -4.20656,-9.24411 -3.21051,-28.89662 0.61529,-12.13987 2.24658,-23.43147 3.62506,-25.09245 3.74903,-4.51728 33.60149,-4.14066 40.23787,0.50763 z m 141.12987,-4.64833 c -18.09958,2.62884 -20.88527,3.87752 -23.39877,10.4885 -2.2208,5.84113 3.00362,39.82401 7.44187,48.40665 6.51278,12.59435 27.09261,16.92402 38.35073,8.06838 9.7225,-7.64771 12.16704,-16.37094 9.61974,-34.32755 -4.88242,-34.41748 -6.73623,-36.30733 -32.01357,-32.63598 z m -69.25171,32.01961 c 2.75231,4.20055 3.30505,9.66423 2.71865,26.87271 -0.72644,21.31781 -0.82724,21.68157 -7.71024,27.82813 -5.39195,4.81505 -9.03887,6.22797 -16.07516,6.22797 -18.22519,0 -25.00005,-10.78675 -25.00005,-39.8044 0,-24.98227 1.33127,-26.39696 24.84031,-26.39696 16.5405,0 18.01115,0.3653 21.22649,5.27255 z"
       id="path1727"
       sodipodi:nodetypes="sssssssssssssssssssssssssssssssssssssssssssssssssssssssssssssscsssssssssssssssssssssssssssssssssssssssssssssssssssssss" /></g></svg>
